# xmcd CD database file
#
# Track frame offsets:
#	151
#	19532
#	38622
#	53986
#	69689
#	81943
#	102381
#	114440
#	137322
#	149427
#	172042
#	187764
#	213068
#	225223
#
# Disc length: 3310 seconds
#
# Revision: 0
# Processed by: cddbd v1.5.1PL2 Copyright (c) Steve Scherf et al.
# Submitted via: CDex 1.51
#
DISCID=af0cec0e
DTITLE=Dale King - The Blues will take you Home
DYEAR=2006
DGENRE=Blues
TTITLE0=01 You Gone
TTITLE1=02 I Wanna Go Back Home
TTITLE2=03 Take A Look
TTITLE3=04 In My Soul
TTITLE4=05 Checking On My Baby
TTITLE5=06 Rainy Day in Paris
TTITLE6=07 Sweet As Honey
TTITLE7=08 The Blues Wont' Let Go
TTITLE8=09 Help Me Forget About My Blues 
TTITLE9=10 I'm Leavin
TTITLE10=11 Gimme Your Love
TTITLE11=12 Just For You
TTITLE12=13 Goin' To Calif
TTITLE13=14 The River
EXTD=YEAR: 2006
EXTT0=
EXTT1=
EXTT2=
EXTT3=
EXTT4=
EXTT5=
EXTT6=
EXTT7=
EXTT8=
EXTT9=
EXTT10=
EXTT11=
EXTT12=
EXTT13=
PLAYORDER=
